<svg width="23" height="23" viewBox="0 0 23 23" fill="none" xmlns="http://www.w3.org/2000/svg">
<path fill-rule="evenodd" clip-rule="evenodd" d="M21.7708 3.04167V5.79667C22.4837 6.21958 22.9791 6.98083 22.9791 7.875V15.125C22.9791 16.0192 22.4837 16.7804 21.7708 17.2033V19.9583C21.7708 21.2875 20.6833 22.375 19.3541 22.375H2.43748C1.09623 22.375 0.020813 21.2875 0.020813 19.9583V3.04167C0.020813 1.7125 1.09623 0.625 2.43748 0.625H19.3541C20.6833 0.625 21.7708 1.7125 21.7708 3.04167ZM12.1041 15.125H20.5625V7.875H12.1041V15.125ZM2.43748 19.9583V3.04167H19.3541V5.45833H12.1041C10.775 5.45833 9.68748 6.54583 9.68748 7.875V15.125C9.68748 16.4542 10.775 17.5417 12.1041 17.5417H19.3541V19.9583H2.43748ZM13.9166 11.5C13.9166 10.499 14.7281 9.6875 15.7291 9.6875C16.7302 9.6875 17.5416 10.499 17.5416 11.5C17.5416 12.501 16.7302 13.3125 15.7291 13.3125C14.7281 13.3125 13.9166 12.501 13.9166 11.5Z" fill="#92ACB5"/>
</svg>
